<svg width="24" height="22" viewBox="0 0 24 22" fill="none" xmlns="http://www.w3.org/2000/svg">
<path fill-rule="evenodd" clip-rule="evenodd" d="M23.6873 0.235548C23.9461 0.468588 24.0561 0.829632 23.9724 1.17155L19.0493 21.2858C18.9687 21.6153 18.7207 21.8751 18.4002 21.9658C18.0797 22.0564 17.7363 21.964 17.5011 21.7238L12.0999 16.2068L9.04615 20.3657C8.84015 20.6462 8.49873 20.7868 8.15983 20.7307C7.82093 20.6745 7.54055 20.4308 7.43198 20.0981L5.09135 12.9258L0.510269 10.5862C0.183706 10.4194 -0.0159293 10.0717 0.000997714 9.69914C0.0179247 9.32661 0.248232 8.99928 0.588515 8.86411L22.7423 0.0641264C23.0639 -0.0636139 23.4284 0.00250865 23.6873 0.235548ZM12.6639 14.1162C12.6571 14.109 12.6502 14.1019 12.6431 14.0949L12.0746 13.5143L16.345 9.15242C16.7055 8.78421 16.7055 8.18722 16.345 7.81902C15.9845 7.45081 15.4001 7.45081 15.0396 7.81902L10.1165 12.8476C9.75603 13.2158 9.75603 13.8128 10.1165 14.181L10.7812 14.8599L8.62628 17.7947L6.72186 11.959C6.64444 11.7218 6.47793 11.5257 6.25896 11.4138L3.19834 9.85072L21.7487 2.48211L17.6537 19.2129L12.6639 14.1162Z" fill="#F1F1F1"/>
</svg>
