<svg width="31" height="30" viewBox="0 0 31 30" fill="none" xmlns="http://www.w3.org/2000/svg">
<path d="M21.4329 16.2083C22.3704 16.2083 23.1954 15.7129 23.6204 14.9637L28.0954 7.12166C28.5579 6.32416 27.9579 5.33332 27.0079 5.33332H8.50786L7.33286 2.91666H3.24536V5.33332H5.74536L10.2454 14.5046L8.55786 17.4529C7.64536 19.0721 8.84536 21.0417 10.7454 21.0417H25.7454V18.625H10.7454L12.1204 16.2083H21.4329ZM9.69536 7.74999H24.8829L21.4329 13.7917H12.6579L9.69536 7.74999ZM10.7454 22.25C9.37036 22.25 8.25786 23.3375 8.25786 24.6667C8.25786 25.9958 9.37036 27.0833 10.7454 27.0833C12.1204 27.0833 13.2454 25.9958 13.2454 24.6667C13.2454 23.3375 12.1204 22.25 10.7454 22.25ZM23.2454 22.25C21.8704 22.25 20.7579 23.3375 20.7579 24.6667C20.7579 25.9958 21.8704 27.0833 23.2454 27.0833C24.6204 27.0833 25.7454 25.9958 25.7454 24.6667C25.7454 23.3375 24.6204 22.25 23.2454 22.25Z" fill="black"/>
</svg>
