<svg width="25" height="26" viewBox="0 0 25 26" fill="none" xmlns="http://www.w3.org/2000/svg">
<path fill-rule="evenodd" clip-rule="evenodd" d="M19.3661 4.95272C17.4069 3.28104 14.9053 2.38207 12.3307 2.42451C9.75609 2.46695 7.28545 3.44789 5.38244 5.18323C3.47944 6.91857 2.27489 9.28902 1.99486 11.8497C1.71482 14.4104 2.37855 16.9854 3.86148 19.0913C4.05453 19.3654 4.09086 19.7204 3.95735 20.028L2.55639 23.2557L7.26433 22.4163C7.46525 22.3805 7.67235 22.4096 7.85563 22.4994C10.1683 23.6322 12.8147 23.8817 15.2981 23.2011C17.7816 22.5206 19.9315 20.9567 21.3442 18.8031C22.757 16.6494 23.3356 14.054 22.9714 11.5039C22.6071 8.95385 21.3252 6.62439 19.3661 4.95272ZM12.299 0.501698C15.3418 0.45154 18.2982 1.51396 20.6135 3.48958C22.9289 5.46519 24.4439 8.21819 24.8743 11.2319C25.3048 14.2457 24.621 17.313 22.9514 19.8582C21.2818 22.4034 18.741 24.2516 15.806 25.0559C12.9739 25.832 9.9625 25.5846 7.29921 24.3635L1.12981 25.4634C0.781172 25.5256 0.426614 25.3909 0.207051 25.113C-0.0125128 24.835 -0.0615095 24.4588 0.0795342 24.1338L1.98469 19.7445C0.447201 17.3445 -0.227131 14.4851 0.0839419 11.6406C0.414891 8.6143 1.83845 5.81286 4.08745 3.762C6.33645 1.71115 9.2563 0.551857 12.299 0.501698ZM8.15848 7.99902C8.4589 7.69848 8.86636 7.52964 9.29121 7.52964C9.71607 7.52964 10.1235 7.69848 10.424 7.99902C10.7244 8.29956 10.8931 8.70718 10.8931 9.13221V10.4143C10.8931 10.8393 10.7244 11.2469 10.424 11.5474C10.2534 11.7181 10.0483 11.8462 9.82518 11.9252C10.0783 12.8023 10.55 13.61 11.2069 14.2671C11.8637 14.9242 12.6711 15.3961 13.5478 15.6493C13.6267 15.4261 13.7549 15.2209 13.9254 15.0503C14.2259 14.7498 14.6333 14.5809 15.0582 14.5809H16.3397C16.7646 14.5809 17.172 14.7498 17.4725 15.0503C17.7729 15.3508 17.9416 15.7585 17.9416 16.1835C17.9416 16.6085 17.7729 17.0161 17.4725 17.3167C17.172 17.6172 16.7646 17.786 16.3397 17.786H15.0582C13.1038 17.786 11.2295 17.0094 9.84758 15.6269C8.46564 14.2444 7.68928 12.3694 7.68928 10.4143V9.13221C7.68928 8.70718 7.85805 8.29956 8.15848 7.99902Z" fill="#F1F1F1"/>
</svg>
