<svg width="138" height="20" viewBox="0 0 138 20" fill="none" xmlns="http://www.w3.org/2000/svg">
<path d="M0 19.8208L8.39434 0.618088H14.7587L23.153 19.8208H16.4595L10.2598 3.69053H12.7835L6.5838 19.8208H0ZM4.99271 16.4741L6.63866 11.8105H15.4719L17.1179 16.4741H4.99271Z" fill="#F1F1F1"/>
<path d="M24.9254 19.8208V0.618088H34.1702C35.9624 0.618088 37.5078 0.910701 38.8063 1.49593C40.123 2.08115 41.138 2.92242 41.8513 4.01972C42.5645 5.09873 42.9211 6.37891 42.9211 7.86027C42.9211 9.34162 42.5645 10.6218 41.8513 11.7008C41.138 12.7798 40.123 13.6211 38.8063 14.2246C37.5078 14.8098 35.9624 15.1024 34.1702 15.1024H28.5191L31.3995 12.3318V19.8208H24.9254ZM31.3995 13.045L28.5191 10.1097H33.7587C34.6548 10.1097 35.3132 9.90856 35.7338 9.50621C36.1727 9.10387 36.3922 8.55522 36.3922 7.86027C36.3922 7.16531 36.1727 6.61666 35.7338 6.21432C35.3132 5.81197 34.6548 5.6108 33.7587 5.6108H28.5191L31.3995 2.67553V13.045Z" fill="#F1F1F1"/>
<path d="M44.8836 19.8208V0.618088H50.2055L57.8866 13.1547H55.0885L62.5501 0.618088H67.872L67.9269 19.8208H62.0289L61.9741 9.50621H62.9068L57.8043 18.0926H54.9513L49.6294 9.50621H50.7816V19.8208H44.8836Z" fill="#F1F1F1"/>
<path d="M69.6796 19.8208L78.0739 0.618088H84.4383L92.8326 19.8208H86.1391L79.9393 3.69053H82.4631L76.2634 19.8208H69.6796ZM74.6723 16.4741L76.3182 11.8105H85.1515L86.7975 16.4741H74.6723Z" fill="#F1F1F1"/>
<path d="M93.335 14.2246V9.56108H101.565V14.2246H93.335Z" fill="#F1F1F1"/>
<path d="M106.328 19.8208L113.571 2.92242L115.299 5.63823H106.191L108.715 2.70296V8.43635H103.366V0.618088H119.798V4.5958L113.406 19.8208H106.328Z" fill="#F1F1F1"/>
<path d="M122.61 19.8208V15.8431L129.551 9.42392C129.99 9.00329 130.31 8.63752 130.511 8.32662C130.73 8.01572 130.877 7.74139 130.95 7.50364C131.023 7.24761 131.06 7.00986 131.06 6.7904C131.06 6.3149 130.904 5.94913 130.593 5.6931C130.282 5.41877 129.816 5.28161 129.194 5.28161C128.627 5.28161 128.088 5.43706 127.576 5.74796C127.064 6.04058 126.661 6.4795 126.369 7.06472L121.486 4.62323C122.181 3.30647 123.223 2.2366 124.613 1.41363C126.003 0.590656 127.731 0.179169 129.798 0.179169C131.316 0.179169 132.66 0.426061 133.83 0.919846C135.001 1.41363 135.915 2.10859 136.574 3.00471C137.232 3.90084 137.561 4.96157 137.561 6.18688C137.561 6.80869 137.479 7.43049 137.314 8.05229C137.168 8.6741 136.857 9.33248 136.381 10.0274C135.906 10.7041 135.202 11.4631 134.269 12.3043L129.057 17.0501L128.042 14.8007H138V19.8208H122.61Z" fill="#F1F1F1"/>
</svg>
