<svg width="22" height="22" viewBox="0 0 22 22" fill="none" xmlns="http://www.w3.org/2000/svg">
<path fill-rule="evenodd" clip-rule="evenodd" d="M3.27027 1.78378C2.87603 1.78378 2.49794 1.9404 2.21917 2.21917C1.94611 2.49222 1.79026 2.86056 1.78398 3.24604C2.05929 7.65622 3.93538 11.8146 7.06041 14.9396C10.1854 18.0646 14.3438 19.9407 18.754 20.216C19.1394 20.2097 19.5078 20.0539 19.7808 19.7808C20.0596 19.5021 20.2162 19.124 20.2162 18.7297V14.5768L15.5362 12.7048L14.1432 15.0264C13.9044 15.4245 13.4002 15.5728 12.9839 15.3675C10.2255 14.0071 7.99294 11.7745 6.63253 9.01612C6.42722 8.59982 6.57553 8.09564 6.97356 7.85683L9.29521 6.46384L7.42319 1.78378H3.27027ZM0.95784 0.95784C1.57113 0.344545 2.40294 0 3.27027 0H8.02703C8.39173 0 8.71968 0.222037 8.85513 0.560652L11.2335 6.5066C11.3961 6.91305 11.2397 7.3774 10.8643 7.60263L8.61935 8.94959C9.68486 10.7874 11.2126 12.3151 13.0504 13.3806L14.3974 11.1357C14.6226 10.7603 15.087 10.6039 15.4934 10.7665L21.4393 13.1449C21.778 13.2803 22 13.6083 22 13.973V18.7297C22 19.5971 21.6555 20.4289 21.0422 21.0422C20.4289 21.6555 19.5971 22 18.7297 22C18.7117 22 18.6936 21.9995 18.6756 21.9984C13.8195 21.7032 9.23923 19.6411 5.79908 16.2009C2.35893 12.7608 0.296753 8.18052 0.00164236 3.32437C0.000547675 3.30636 0 3.28832 0 3.27027C0 2.40294 0.344545 1.57113 0.95784 0.95784Z" fill="#F1F1F1"/>
</svg>
