<svg width="1168" height="604" viewBox="0 0 1168 604" fill="none" xmlns="http://www.w3.org/2000/svg">
<path fill-rule="evenodd" clip-rule="evenodd" d="M556.1 13.8237C511.014 40.2359 403.312 85.3371 355.941 97.6424C335.574 102.933 332.811 104.537 330.456 112.464C326.73 124.997 330.289 211.134 335.974 246.067C359.652 391.527 434.272 505.924 558.41 587.064L583.815 603.668L609.22 587.064C733.367 505.918 808.224 391.133 831.609 246.067C837.282 210.876 840.863 124.883 837.171 112.464C834.818 104.543 832.056 102.933 811.796 97.6701C764.54 85.3956 656.431 40.1158 608.77 12.6381C596.44 5.53085 584.742 -0.15683 582.774 0.00330007C580.806 0.16343 568.803 6.38385 556.1 13.8237ZM535.083 49.3756C489.911 72.2772 417.834 102.314 373.645 116.649L352.858 123.393L352.914 159.326C353.022 227.046 369.032 304.456 394.742 361.546L400.288 373.863L402.388 352.067C403.543 340.079 405.523 325.556 406.788 319.795C408.876 310.279 408.621 309.707 403.995 313.544C401.193 315.869 398.015 316.888 396.934 315.807C393.753 312.623 407.189 264.147 420.723 229.971C437.564 187.447 439.233 185.141 451.917 186.872C463.865 188.504 462.781 187.244 437.983 170.686C420.877 159.262 419.531 158.874 411.854 163.185C398.514 170.671 389.285 189.763 391.142 206.035C392.654 219.301 392.534 219.563 388.296 212.194C382.495 202.099 382.455 177.248 388.226 166.092C390.741 161.229 397.116 154.174 402.394 150.414C411.016 144.277 414.391 143.778 435.547 145.515C448.499 146.581 462.289 148.339 466.187 149.429L473.276 151.406L466.187 159.2C462.289 163.49 460.484 166.353 462.178 165.568C463.871 164.78 477.523 158.104 492.51 150.732C514.978 139.676 523.634 137.084 541.781 135.969C561.277 134.771 565.033 135.464 574.577 142.045L585.355 149.475L593.955 143.206C600.006 138.793 608.693 136.588 623.265 135.766C642.949 134.651 645.305 135.294 670.83 148.758C685.602 156.549 698.742 162.88 700.029 162.831C701.319 162.778 699.946 161.325 696.983 159.597C689.34 155.144 690.31 150.605 698.905 150.605C702.927 150.605 712.282 148.45 719.691 145.817C727.22 143.144 737.345 141.801 742.636 142.777C766.076 147.101 784.925 186.949 774.739 210.654C772.346 216.222 772.072 216.043 771.875 208.803C771.358 189.631 756.09 162.159 743.781 158.252C739.372 156.853 732.603 159.508 721.453 167.016C712.652 172.94 702.406 178.671 698.68 179.752C691.97 181.698 691.961 181.766 697.91 187.715C708.079 197.884 704.405 227.591 692.98 227.591C690.474 227.591 680.718 223.243 671.301 217.928C655.63 209.083 652.547 208.418 634.853 210.072C614.11 212.009 608.487 209.545 608.404 198.49C608.364 193.286 607.831 192.987 605.371 196.797C600.083 204.976 601.959 208.914 620.768 229.131C637.914 247.561 643.417 250.378 636.297 237.078C633.769 232.355 634.437 231.782 641.027 233.041C645.77 233.95 651.011 232.416 654.758 229.026C660.015 224.268 662.417 224.022 672.899 227.163C685.106 230.818 700.833 245.929 700.833 254.003C700.833 260.137 690.113 270.185 681.168 272.43C676.582 273.582 668.022 271.817 659.144 267.888C651.156 264.356 644.288 261.464 643.885 261.464C643.482 261.464 645.736 270.789 648.895 282.183C658.266 315.979 656.387 339.254 643.047 354.555C638.724 359.513 638.062 359.196 633.434 349.936C630.702 344.467 621.605 335.521 613.217 330.055C595.858 318.745 590.239 310.476 590.081 296.009C589.955 284.163 597.469 264.544 602.134 264.544C603.914 264.544 605.371 268.101 605.371 272.446C605.371 279.233 606.553 280.212 613.741 279.374C620.17 278.626 622.766 276.104 624.934 268.495C631.253 246.326 613.313 229.26 583.815 229.377C554.228 229.497 538.104 244.62 542.757 267.885C545.96 283.898 562.259 285.739 562.259 270.087C562.259 262.53 567.072 263.118 572.861 271.389C575.685 275.42 577.656 284.714 577.656 294.008C577.656 311.724 573.739 316.909 552.149 327.78C543.715 332.026 537.232 338.419 532.737 346.924C526.479 358.756 525.632 359.31 521.238 354.457C508.726 340.633 507.599 317.815 517.564 280.086C520.003 270.847 521.383 262.672 520.628 261.917C519.871 261.163 514.879 269.896 509.53 281.327C502.697 295.923 499.359 308.324 498.309 323.003C496.196 352.544 504.56 369.263 538.547 403.444C596.16 461.383 615.012 512.702 594.704 556.319C590.565 565.209 587.984 572.486 588.97 572.486C589.955 572.486 599.936 565.652 611.154 557.298C642.604 533.873 674.208 498.811 703.82 454.492C721.111 428.612 743.88 382.717 744.046 373.411C744.139 368.262 744.708 368.376 749.894 374.59C755.114 380.844 755.837 380.983 757.836 376.13C759.043 373.189 760.758 354.491 761.651 334.576C762.966 305.158 764.026 298.996 767.311 301.722C770.572 304.428 770.994 302.803 769.485 293.278C767.696 281.986 756.456 238.957 751.923 226.051C750.732 222.664 753.278 226.381 757.583 234.31C766.794 251.287 780.876 298.029 780.944 311.85C781.042 331.875 785.979 329.834 792.569 307.04C808.409 252.242 814.633 210.728 814.716 159.326L814.771 123.393L793.985 116.649C751.15 102.754 679.246 72.9332 633.086 49.9176C606.834 36.8301 584.662 25.969 583.815 25.7842C582.968 25.5994 561.039 36.2142 535.083 49.3756ZM559.226 196.951C559.155 209.037 554.437 211.858 539.798 208.569C524.136 205.049 516.677 206.799 496.443 218.737C480.725 228.013 480.704 228.05 491.417 226.707C497.85 225.9 504.973 227.187 509.13 229.913C512.951 232.416 519.575 233.796 523.849 232.98C530.541 231.702 531.342 232.37 529.614 237.805C527.933 243.111 529.632 242.517 540.263 234.098C562.936 216.142 569.255 204.541 562.259 193.717C559.903 190.071 559.263 190.749 559.226 196.951ZM577.25 236.512C579.565 237.981 582.386 240.675 583.513 242.501C584.806 244.592 586.962 243.585 589.336 239.785C592.791 234.252 592.271 233.753 583.07 233.796C576.212 233.83 574.37 234.689 577.25 236.512ZM562.598 338.669C519.135 347.309 536.626 384.641 584.138 384.641C612.423 384.641 635.136 365.912 623.647 352.064C613.58 339.937 586.306 333.954 562.598 338.669Z" fill="#121212"/>
</svg>
