<svg width="793" height="165" viewBox="0 0 793 165" fill="none" xmlns="http://www.w3.org/2000/svg">
<g clip-path="url(#clip0_303_53)">
<path d="M26.956 129.07V158.787H20.1536V134.674H6.80246V158.787H0V129.07H26.956ZM47.1096 129.07C49.7293 129.07 52.0038 129.508 53.9332 130.386C55.8626 131.263 57.3485 132.508 58.3906 134.122C59.4327 135.735 59.9538 137.645 59.9538 139.853C59.9538 142.032 59.4327 143.935 58.3906 145.563C57.3485 147.19 55.8626 148.436 53.9332 149.299C52.0038 150.162 49.7293 150.593 47.1096 150.593H41.1523V158.787H34.3077V129.07H47.1096ZM46.7294 144.99C48.7856 144.99 50.3489 144.544 51.4192 143.653C52.4896 142.761 53.0248 141.495 53.0248 139.853C53.0248 138.183 52.4896 136.902 51.4192 136.011C50.3489 135.119 48.7856 134.674 46.7294 134.674H41.1523V144.99H46.7294ZM79.0088 159.297C75.9389 159.297 73.1712 158.632 70.7069 157.301C68.242 155.971 66.3126 154.139 64.9184 151.804C63.5242 149.469 62.8269 146.844 62.8269 143.928C62.8269 141.013 63.5242 138.388 64.9184 136.053C66.3126 133.719 68.242 131.886 70.7069 130.556C73.1715 129.225 75.9389 128.56 79.0088 128.56C82.0793 128.56 84.8396 129.225 87.2902 130.556C89.7406 131.886 91.6702 133.718 93.0785 136.053C94.487 138.388 95.191 141.013 95.191 143.928C95.191 146.844 94.487 149.469 93.0785 151.804C91.6702 154.138 89.7406 155.971 87.2902 157.301C84.8396 158.632 82.0793 159.297 79.0088 159.297ZM79.0088 153.438C80.7554 153.438 82.3327 153.035 83.7412 152.228C85.1494 151.422 86.2551 150.297 87.0578 148.853C87.8605 147.41 88.2619 145.768 88.2619 143.928C88.2619 142.089 87.8605 140.447 87.0578 139.004C86.2549 137.56 85.1494 136.435 83.7412 135.629C82.3327 134.822 80.7552 134.419 79.0088 134.419C77.2627 134.419 75.6852 134.822 74.2769 135.629C72.8687 136.435 71.763 137.56 70.9603 139.004C70.1574 140.447 69.7562 142.089 69.7562 143.928C69.7562 145.768 70.1576 147.41 70.9603 148.853C71.763 150.297 72.8687 151.422 74.2769 152.228C75.6852 153.035 77.2627 153.438 79.0088 153.438ZM100.473 129.07H107.275V148.429L121.387 129.07H127.809V158.787H121.048V139.471L106.937 158.787H100.472L100.473 129.07ZM151.976 143.292C153.694 143.886 155.039 144.813 156.011 146.072C156.983 147.332 157.469 148.796 157.469 150.466C157.469 152.278 156.877 153.849 155.694 155.179C154.511 156.509 152.913 157.528 150.899 158.235C148.885 158.943 146.681 159.297 144.287 159.297C142.258 159.297 140.237 159.042 138.223 158.533C136.21 158.023 134.301 157.245 132.498 156.198L134.611 151.273C135.907 152.066 137.336 152.667 138.899 153.077C140.463 153.488 141.991 153.693 143.484 153.693C145.512 153.693 147.195 153.325 148.533 152.589C149.871 151.853 150.54 150.82 150.54 149.49C150.54 148.386 150.082 147.551 149.166 146.985C148.251 146.419 147.005 146.136 145.427 146.136H138.202V140.957H144.92C146.3 140.957 147.378 140.674 148.152 140.108C148.927 139.542 149.314 138.763 149.314 137.773C149.314 136.612 148.758 135.707 147.645 135.056C146.533 134.405 145.103 134.079 143.357 134.079C142.061 134.079 140.723 134.256 139.343 134.61C137.963 134.964 136.653 135.494 135.414 136.202L133.343 130.853C136.47 129.239 139.85 128.433 143.484 128.433C145.793 128.433 147.92 128.772 149.863 129.452C151.807 130.131 153.356 131.122 154.511 132.424C155.666 133.725 156.243 135.239 156.243 136.966C156.243 138.381 155.863 139.641 155.102 140.745C154.342 141.848 153.3 142.697 151.976 143.292H151.976ZM183.368 143.292C185.171 143.829 186.552 144.707 187.509 145.924C188.467 147.141 188.946 148.641 188.946 150.424C188.946 153.056 187.953 155.108 185.967 156.58C183.981 158.052 181.143 158.787 177.453 158.787H162.877V129.07H176.651C180.087 129.07 182.763 129.735 184.678 131.065C186.594 132.395 187.551 134.292 187.551 136.754C187.551 138.226 187.185 139.52 186.453 140.638C185.72 141.756 184.692 142.641 183.368 143.292ZM169.68 141.381H176.059C177.552 141.381 178.679 141.077 179.439 140.469C180.2 139.86 180.58 138.962 180.58 137.773C180.58 136.612 180.193 135.721 179.418 135.098C178.644 134.475 177.524 134.164 176.059 134.164H169.68V141.381ZM177.2 153.693C180.411 153.693 182.017 152.419 182.017 149.872C182.017 147.41 180.411 146.179 177.2 146.179H169.68V153.693H177.2ZM208.466 159.297C205.395 159.297 202.628 158.632 200.163 157.301C197.699 155.971 195.769 154.139 194.375 151.804C192.981 149.469 192.284 146.844 192.284 143.928C192.284 141.013 192.981 138.388 194.375 136.053C195.769 133.719 197.699 131.886 200.163 130.556C202.628 129.225 205.395 128.56 208.466 128.56C211.536 128.56 214.296 129.225 216.747 130.556C219.197 131.886 221.127 133.718 222.535 136.053C223.944 138.388 224.648 141.013 224.648 143.928C224.648 146.844 223.944 149.469 222.535 151.804C221.127 154.138 219.197 155.971 216.747 157.301C214.296 158.632 211.536 159.297 208.466 159.297ZM208.466 153.438C210.212 153.438 211.789 153.035 213.198 152.228C214.606 151.422 215.711 150.297 216.514 148.853C217.317 147.41 217.719 145.768 217.719 143.928C217.719 142.089 217.317 140.447 216.514 139.004C215.711 137.56 214.606 136.435 213.198 135.629C211.789 134.822 210.212 134.419 208.466 134.419C206.719 134.419 205.142 134.822 203.734 135.629C202.325 136.435 201.22 137.56 200.417 139.004C199.614 140.447 199.213 142.089 199.213 143.928C199.213 145.768 199.614 147.41 200.417 148.853C201.22 150.297 202.325 151.422 203.734 152.228C205.142 153.035 206.719 153.438 208.466 153.438ZM259.588 153.183V164.943H253.252V158.787H232.379V164.943H226.042L226.084 153.183H227.267C229.042 153.127 230.295 151.825 231.027 149.278C231.76 146.73 232.21 143.094 232.379 138.367L232.717 129.07H255.448V153.183H259.588ZM238.421 139.004C238.281 142.542 237.985 145.506 237.534 147.898C237.084 150.289 236.393 152.051 235.464 153.183H248.689V134.674H238.548L238.421 139.004ZM278.179 159.297C275.165 159.297 272.44 158.639 270.005 157.323C267.567 156.007 265.651 154.181 264.258 151.846C262.863 149.511 262.166 146.872 262.166 143.928C262.166 140.985 262.863 138.346 264.258 136.011C265.651 133.676 267.567 131.85 270.005 130.534C272.44 129.218 275.18 128.56 278.222 128.56C280.786 128.56 283.103 129.013 285.173 129.919C287.243 130.825 288.982 132.126 290.389 133.824L285.995 137.9C283.995 135.579 281.516 134.419 278.561 134.419C276.73 134.419 275.095 134.822 273.659 135.629C272.222 136.436 271.103 137.56 270.3 139.004C269.497 140.447 269.095 142.089 269.095 143.929C269.095 145.768 269.497 147.41 270.3 148.853C271.103 150.297 272.222 151.422 273.659 152.228C275.095 153.035 276.73 153.438 278.561 153.438C281.516 153.438 283.995 152.264 285.995 149.915L290.389 153.99C288.982 155.716 287.236 157.033 285.151 157.938C283.066 158.844 280.742 159.297 278.179 159.297ZM317.178 134.674H307.713V158.787H300.953V134.674H291.531V129.07H317.178V134.674ZM341.979 143.292C343.781 143.829 345.162 144.707 346.12 145.924C347.077 147.141 347.556 148.641 347.556 150.424C347.556 153.056 346.562 155.108 344.577 156.58C342.591 158.051 339.754 158.787 336.064 158.787H321.485V129.07H335.261C338.697 129.07 341.372 129.735 343.288 131.065C345.203 132.395 346.161 134.292 346.161 136.754C346.161 138.226 345.795 139.52 345.063 140.638C344.33 141.756 343.302 142.641 341.979 143.292ZM328.288 141.381H334.668C336.163 141.381 337.287 141.077 338.049 140.468C338.809 139.86 339.191 138.961 339.191 137.773C339.191 136.612 338.801 135.721 338.027 135.098C337.254 134.475 336.134 134.164 334.668 134.164H328.288V141.381ZM335.81 153.693C339.021 153.693 340.627 152.419 340.627 149.872C340.627 147.41 339.021 146.179 335.81 146.179H328.288V153.693H335.81ZM375.864 153.268V158.787H352.964V129.07H375.315V134.589H359.767V141.042H373.498V146.391H359.767V153.268H375.864ZM408.524 129.07V158.787H401.678V146.603H388.244V158.787H381.399V129.07H388.244V140.787H401.678V129.07H408.524ZM443.043 129.07V158.787H436.198V146.603H422.762V158.787H415.918V129.07H422.762V140.787H436.198V129.07H443.043ZM470.463 152.419H456.731L454.112 158.787H447.098L460.281 129.07H467.04L480.264 158.787H473.082L470.463 152.419ZM468.308 147.197L463.618 135.82L458.929 147.197H468.308ZM506.291 129.07V158.787H499.532V150.891H493.278L488.04 158.787H480.813L486.983 149.829C484.983 149.009 483.447 147.771 482.378 146.115C481.307 144.459 480.772 142.471 480.772 140.15C480.772 137.857 481.292 135.883 482.335 134.228C483.377 132.572 484.857 131.298 486.772 130.407C488.688 129.515 490.942 129.07 493.532 129.07H506.291ZM493.701 134.674C491.757 134.674 490.272 135.126 489.244 136.032C488.216 136.938 487.701 138.282 487.701 140.065C487.701 141.792 488.194 143.122 489.181 144.056C490.165 144.99 491.616 145.457 493.532 145.457H499.532V134.674H493.701ZM537.092 146.815H532.36V158.787H525.559V129.07H532.36V141.084H537.262L545.037 129.07H552.261L542.585 143.419L552.556 158.787H544.783L537.092 146.815ZM569.753 159.296C566.682 159.296 563.915 158.631 561.451 157.301C558.986 155.971 557.057 154.138 555.661 151.803C554.268 149.469 553.572 146.843 553.572 143.928C553.572 141.013 554.268 138.388 555.661 136.053C557.057 133.718 558.986 131.886 561.451 130.555C563.915 129.225 566.682 128.56 569.753 128.56C572.822 128.56 575.584 129.225 578.034 130.555C580.484 131.886 582.414 133.718 583.821 136.053C585.231 138.388 585.935 141.013 585.935 143.928C585.935 146.843 585.231 149.469 583.821 151.803C582.414 154.138 580.484 155.971 578.034 157.301C575.584 158.631 572.822 159.296 569.753 159.296ZM569.753 153.438C571.499 153.438 573.076 153.035 574.484 152.228C575.894 151.421 576.999 150.296 577.802 148.853C578.605 147.41 579.006 145.768 579.006 143.928C579.006 142.089 578.605 140.447 577.802 139.004C576.999 137.56 575.894 136.435 574.484 135.629C573.076 134.822 571.499 134.419 569.753 134.419C568.007 134.419 566.428 134.822 565.02 135.629C563.613 136.435 562.508 137.56 561.705 139.004C560.902 140.447 560.5 142.089 560.5 143.928C560.5 145.768 560.902 147.409 561.705 148.853C562.508 150.296 563.613 151.421 565.02 152.228C566.428 153.035 568.007 153.438 569.753 153.438ZM618.129 158.787L618.088 140.999L609.384 155.646H606.341L597.638 141.339V158.787H591.217V129.07H596.878L607.947 147.537L618.847 129.07H624.511L624.552 158.787H618.129ZM658.86 129.07V158.787H652.057V134.673H638.705V158.787H631.904V129.07H658.86ZM686.239 152.419H672.507L669.888 158.787H662.875L676.055 129.07H682.817L696.041 158.787H688.858L686.239 152.419ZM684.084 147.197L679.395 135.82L674.703 147.197H684.084ZM727.096 129.07V158.787H720.249V146.603H706.815V158.787H699.971V129.07H706.815V140.787H720.249V129.07H727.096ZM734.489 129.07H741.292V148.428L755.403 129.07H761.824V158.787H755.065V139.471L740.953 158.787H734.489V129.07ZM792.794 129.07V158.787H786.035V150.891H779.781L774.543 158.787H767.316L773.486 149.829C771.486 149.009 769.95 147.77 768.881 146.115C767.81 144.459 767.275 142.471 767.275 140.15C767.275 137.857 767.795 135.883 768.838 134.227C769.88 132.572 771.36 131.298 773.275 130.407C775.191 129.515 777.445 129.069 780.035 129.069L792.794 129.07ZM780.204 134.673C778.26 134.673 776.775 135.126 775.747 136.032C774.719 136.938 774.204 138.282 774.204 140.065C774.204 141.792 774.697 143.122 775.684 144.056C776.668 144.99 778.119 145.457 780.035 145.457H786.035V134.673H780.204Z" fill="#E3E3E3"/>
<path d="M9.86504 0.000230789H125.001L115.136 99.1219H63.5574L66.2351 72.6422H54.1154L51.5787 99.1219H0.000228882L9.86504 0.000230789ZM68.4898 49.5611C68.7718 46.6346 69.0535 43.7552 69.3355 40.9233C69.5234 38.4687 69.7582 35.9198 70.04 33.2767C70.322 30.6335 70.5568 28.368 70.7447 26.4798H58.766L56.5113 49.5609H68.4898V49.5611Z" fill="#E3E3E3"/>
<path d="M125 99.1217L134.865 0.000118256H247.745L241.123 66.6948L221.957 82.5542H176.015L174.324 99.1217H125ZM181.511 26.4797L178.129 60.6058H190.249L193.631 26.4797H181.511Z" fill="#E3E3E3"/>
<path d="M247.745 99.1217L257.61 0.000118256H309.19L329.343 53.9506L358.514 0.000118256H409.951L400.087 99.1217H348.649L351.607 68.2524L335.401 99.1217H313.558L302.283 69.3851L299.325 99.1217H247.745Z" fill="#E3E3E3"/>
<path fill-rule="evenodd" clip-rule="evenodd" d="M419.816 0H534.952L531.895 30.7109H503.926L500.066 68.2689H528.156L525.087 99.1215H473.507L476.185 72.642H464.066L461.529 99.1215H409.951L419.816 0ZM478.441 49.5607C478.721 46.6342 479.004 43.7551 479.285 40.9229C479.474 38.4688 479.708 35.9199 479.991 33.2765C480.272 30.6331 480.506 28.3676 480.695 26.4797H468.716L466.463 49.5607H478.441Z" fill="#E3E3E3"/>
<path d="M510.932 38.516H560.256L558.002 60.4641H508.678L510.932 38.516Z" fill="#85AB3A"/>
<path d="M667.794 0.000118256L665.116 26.4797L612.552 99.1217H551.671L610.296 26.4797H558.858L561.538 0.000118256H667.794Z" fill="#85AB3A"/>
<path d="M677.658 0.000118256H792.794L788.004 47.8617L745.021 72.642H785.467L782.93 99.1217H667.794L670.471 72.642L736.283 38.516L737.553 26.4797H725.432L724.445 36.3919H673.994L677.658 0.000118256Z" fill="#85AB3A"/>
</g>
<defs>
<clipPath id="clip0_303_53">
<rect width="793" height="165" fill="white"/>
</clipPath>
</defs>
</svg>
