<svg width="1168" height="816" viewBox="0 0 1168 816" fill="none" xmlns="http://www.w3.org/2000/svg">
<path fill-rule="evenodd" clip-rule="evenodd" d="M556.1 13.8237C511.014 40.2359 403.312 85.3371 355.941 97.6424C335.574 102.933 332.811 104.537 330.456 112.464C326.73 124.997 330.289 211.134 335.974 246.067C359.652 391.527 434.272 505.924 558.41 587.064L583.815 603.668L609.22 587.064C733.367 505.918 808.224 391.133 831.609 246.067C837.282 210.876 840.863 124.883 837.171 112.464C834.818 104.543 832.056 102.933 811.796 97.6701C764.54 85.3956 656.431 40.1158 608.77 12.6381C596.44 5.53085 584.742 -0.15683 582.774 0.00330007C580.806 0.16343 568.803 6.38385 556.1 13.8237ZM535.083 49.3756C489.911 72.2772 417.834 102.314 373.645 116.649L352.858 123.393L352.914 159.326C353.022 227.046 369.032 304.456 394.742 361.546L400.288 373.863L402.388 352.067C403.543 340.079 405.523 325.556 406.788 319.795C408.876 310.279 408.621 309.707 403.995 313.544C401.193 315.869 398.015 316.888 396.934 315.807C393.753 312.623 407.189 264.147 420.723 229.971C437.564 187.447 439.233 185.141 451.917 186.872C463.865 188.504 462.781 187.244 437.983 170.686C420.877 159.262 419.531 158.874 411.854 163.185C398.514 170.671 389.285 189.763 391.142 206.035C392.654 219.301 392.534 219.563 388.296 212.194C382.495 202.099 382.455 177.248 388.226 166.092C390.741 161.229 397.116 154.174 402.394 150.414C411.016 144.277 414.391 143.778 435.547 145.515C448.499 146.581 462.289 148.339 466.187 149.429L473.276 151.406L466.187 159.2C462.289 163.49 460.484 166.353 462.178 165.568C463.871 164.78 477.523 158.104 492.51 150.732C514.978 139.676 523.634 137.084 541.781 135.969C561.277 134.771 565.033 135.464 574.577 142.045L585.355 149.475L593.955 143.206C600.006 138.793 608.693 136.588 623.265 135.766C642.949 134.651 645.305 135.294 670.83 148.758C685.602 156.549 698.742 162.88 700.029 162.831C701.319 162.778 699.946 161.325 696.983 159.597C689.34 155.144 690.31 150.605 698.905 150.605C702.927 150.605 712.282 148.45 719.691 145.817C727.22 143.144 737.345 141.801 742.636 142.777C766.076 147.101 784.925 186.949 774.739 210.654C772.346 216.222 772.072 216.043 771.875 208.803C771.358 189.631 756.09 162.159 743.781 158.252C739.372 156.853 732.603 159.508 721.453 167.016C712.652 172.94 702.406 178.671 698.68 179.752C691.97 181.698 691.961 181.766 697.91 187.715C708.079 197.884 704.405 227.591 692.98 227.591C690.474 227.591 680.718 223.243 671.301 217.928C655.63 209.083 652.547 208.418 634.853 210.072C614.11 212.009 608.487 209.545 608.404 198.49C608.364 193.286 607.831 192.987 605.371 196.797C600.083 204.976 601.959 208.914 620.768 229.131C637.914 247.561 643.417 250.378 636.297 237.078C633.769 232.355 634.437 231.782 641.027 233.041C645.77 233.95 651.011 232.416 654.758 229.026C660.015 224.268 662.417 224.022 672.899 227.163C685.106 230.818 700.833 245.929 700.833 254.003C700.833 260.137 690.113 270.185 681.168 272.43C676.582 273.582 668.022 271.817 659.144 267.888C651.156 264.356 644.288 261.464 643.885 261.464C643.482 261.464 645.736 270.789 648.895 282.183C658.266 315.979 656.387 339.254 643.047 354.555C638.724 359.513 638.062 359.196 633.434 349.936C630.702 344.467 621.605 335.521 613.217 330.055C595.858 318.745 590.239 310.476 590.081 296.009C589.955 284.163 597.469 264.544 602.134 264.544C603.914 264.544 605.371 268.101 605.371 272.446C605.371 279.233 606.553 280.212 613.741 279.374C620.17 278.626 622.766 276.104 624.934 268.495C631.253 246.326 613.313 229.26 583.815 229.377C554.228 229.497 538.104 244.62 542.757 267.885C545.96 283.898 562.259 285.739 562.259 270.087C562.259 262.53 567.072 263.118 572.861 271.389C575.685 275.42 577.656 284.714 577.656 294.008C577.656 311.724 573.739 316.909 552.149 327.78C543.715 332.026 537.232 338.419 532.737 346.924C526.479 358.756 525.632 359.31 521.238 354.457C508.726 340.633 507.599 317.815 517.564 280.086C520.003 270.847 521.383 262.672 520.628 261.917C519.871 261.163 514.879 269.896 509.53 281.327C502.697 295.923 499.359 308.324 498.309 323.003C496.196 352.544 504.56 369.263 538.547 403.444C596.16 461.383 615.012 512.702 594.704 556.319C590.565 565.209 587.984 572.486 588.97 572.486C589.955 572.486 599.936 565.652 611.154 557.298C642.604 533.873 674.208 498.811 703.82 454.492C721.111 428.612 743.88 382.717 744.046 373.411C744.139 368.262 744.708 368.376 749.894 374.59C755.114 380.844 755.837 380.983 757.836 376.13C759.043 373.189 760.758 354.491 761.651 334.576C762.966 305.158 764.026 298.996 767.311 301.722C770.572 304.428 770.994 302.803 769.485 293.278C767.696 281.986 756.456 238.957 751.923 226.051C750.732 222.664 753.278 226.381 757.583 234.31C766.794 251.287 780.876 298.029 780.944 311.85C781.042 331.875 785.979 329.834 792.569 307.04C808.409 252.242 814.633 210.728 814.716 159.326L814.771 123.393L793.985 116.649C751.15 102.754 679.246 72.9332 633.086 49.9176C606.834 36.8301 584.662 25.969 583.815 25.7842C582.968 25.5994 561.039 36.2142 535.083 49.3756ZM559.226 196.951C559.155 209.037 554.437 211.858 539.798 208.569C524.136 205.049 516.677 206.799 496.443 218.737C480.725 228.013 480.704 228.05 491.417 226.707C497.85 225.9 504.973 227.187 509.13 229.913C512.951 232.416 519.575 233.796 523.849 232.98C530.541 231.702 531.342 232.37 529.614 237.805C527.933 243.111 529.632 242.517 540.263 234.098C562.936 216.142 569.255 204.541 562.259 193.717C559.903 190.071 559.263 190.749 559.226 196.951ZM577.25 236.512C579.565 237.981 582.386 240.675 583.513 242.501C584.806 244.592 586.962 243.585 589.336 239.785C592.791 234.252 592.271 233.753 583.07 233.796C576.212 233.83 574.37 234.689 577.25 236.512ZM562.598 338.669C519.135 347.309 536.626 384.641 584.138 384.641C612.423 384.641 635.136 365.912 623.647 352.064C613.58 339.937 586.306 333.954 562.598 338.669Z" fill="white"/>
<path fill-rule="evenodd" clip-rule="evenodd" d="M14.1661 669.2C13.7763 672.051 0.000976562 813.248 0.000976562 814.391C0.000976562 815.308 0.676098 815.324 38.1204 815.324C74.0937 815.324 76.2418 815.277 76.2696 814.485C76.2859 814.024 77.0972 805.231 78.0725 794.946L79.8457 776.246L88.6381 776.115L97.4305 775.984L97.1375 778.273C96.8776 780.307 93.5016 814.483 93.5016 815.084C93.5016 815.216 110.642 815.324 131.592 815.324H169.682L169.964 813.287C170.359 810.435 184.125 669.333 184.125 668.137V667.162H99.2847H14.4447L14.1661 669.2ZM198.288 669.2C197.899 672.029 184.125 813.219 184.125 814.382C184.125 815.311 184.658 815.324 220.566 815.324C240.609 815.324 257.008 815.27 257.008 815.205C257.008 815.139 257.548 809.798 258.206 803.337C258.865 796.876 259.405 791.428 259.405 791.23C259.405 791.032 274.63 790.87 293.239 790.87H327.072L340.589 779.536C348.022 773.302 354.383 767.946 354.723 767.633C355.152 767.237 356.795 752.2 360.117 718.254C362.743 691.407 364.893 668.929 364.893 668.302V667.162H281.731H198.569L198.288 669.2ZM379.064 669.197C378.695 671.952 364.893 813.48 364.893 814.511C364.893 815.269 367.476 815.324 402.951 815.324H441.008L441.293 813.047C441.449 811.794 442.355 802.57 443.304 792.549C444.254 782.527 445.179 773.945 445.36 773.477C445.578 772.91 448.334 779.724 453.603 793.855L461.519 815.085H478.005H494.491L505.811 793.177C512.037 781.128 517.195 771.548 517.273 771.888C517.35 772.228 516.541 781.693 515.475 792.921C514.408 804.148 513.535 813.782 513.535 814.33V815.324L551.535 815.324L589.534 815.323L596.631 742.322C600.535 702.171 603.83 668.833 603.953 668.238L604.178 667.156L565.931 667.279L527.684 667.402L506.584 707.042C494.98 728.844 485.376 746.789 485.244 746.92C485.112 747.051 478.406 729.213 470.342 707.28L455.68 667.402L417.508 667.279L379.337 667.156L379.064 669.197ZM618.062 667.761C618.061 668.091 614.824 701.363 610.87 741.698C606.915 782.033 603.679 815.1 603.679 815.18C603.679 815.259 620.823 815.324 641.777 815.324H679.874L680.126 813.766C680.265 812.909 681.035 804.979 681.838 796.145C682.642 787.31 683.426 779.165 683.581 778.044L683.863 776.006H692.439C700.899 776.006 701.016 776.02 701.016 777.039C701.016 778.24 697.805 810.858 697.424 813.529L697.167 815.33L735.412 815.207L773.656 815.085L775.649 794.706C776.745 783.498 777.772 773.196 777.932 771.811L778.222 769.293H757.6H736.977V768.207C736.977 767.61 738.164 755.427 739.615 741.133C741.065 726.84 742.252 714.706 742.252 714.169C742.252 713.202 742.448 713.193 762.861 713.193H783.47L783.698 712.114C783.824 711.521 784.801 701.757 785.87 690.417C786.938 679.077 787.913 669.206 788.035 668.481L788.259 667.162H703.161C635.404 667.162 618.063 667.284 618.062 667.761ZM86.5777 708.998C86.4296 710.119 85.7683 716.861 85.1081 723.982C84.4483 731.102 83.788 737.845 83.6408 738.966L83.3733 741.003H91.9792H100.585L100.872 738.966C101.03 737.845 101.595 732.073 102.127 726.139C103.058 715.754 103.251 713.841 103.84 709.117L104.109 706.96H95.4785H86.8477L86.5777 708.998ZM267.353 709.237C266.911 712.663 262.762 755.638 262.762 756.788C262.762 757.762 262.969 757.786 271.347 757.786H279.933L280.224 755.508C280.657 752.122 284.818 709.004 284.818 707.905C284.818 706.999 284.457 706.96 276.232 706.96H267.647L267.353 709.237ZM690.467 707.554C690.467 708.191 687.704 737.473 687.435 739.695L687.273 741.025L695.939 740.894L704.604 740.764L705.206 734.051C705.537 730.359 706.24 723.006 706.769 717.712C707.296 712.418 707.728 707.833 707.728 707.523C707.728 707.113 705.389 706.96 699.098 706.96C692.553 706.96 690.467 707.104 690.467 707.554Z" fill="white"/>
<path fill-rule="evenodd" clip-rule="evenodd" d="M826.534 668.235C826.221 669.719 822.889 704 822.899 705.632L822.907 706.948L860.503 707.071L898.1 707.194L855.432 760.897C831.964 790.433 812.659 814.761 812.532 814.959C812.406 815.157 832.543 815.309 857.282 815.297L902.263 815.275L922.401 786.93C933.477 771.34 950.848 746.914 961.003 732.649L979.466 706.714L981.303 687.774C982.314 677.357 983.244 668.457 983.371 667.995C983.59 667.199 979.635 667.156 905.181 667.156H826.761L826.534 668.235ZM995.097 692.929C993.716 707.104 992.467 719.402 992.323 720.26L992.06 721.818H1029.51C1064.42 721.818 1066.97 721.763 1066.97 721.004C1066.97 719.607 1067.96 709.167 1068.2 708.033C1068.42 706.963 1068.49 706.954 1077.05 706.954C1083.62 706.954 1085.67 707.096 1085.67 707.553C1085.68 707.883 1085.31 711.875 1084.85 716.424L1084.03 724.696L1036.06 749.931C1009.68 763.81 987.843 775.408 987.54 775.703C987.213 776.021 986.278 783.491 985.253 793.981C984.298 803.739 983.395 812.532 983.245 813.522L982.972 815.322L1068 815.2L1153.02 815.079L1154.79 796.619C1155.77 786.465 1156.58 777.567 1156.6 776.843L1156.63 775.528L1127.44 775.405L1098.26 775.281L1128.76 757.41C1145.54 747.581 1159.53 739.372 1159.86 739.169C1160.26 738.917 1161.52 727.84 1163.79 704.536C1165.64 685.691 1167.25 669.572 1167.37 668.715L1167.6 667.156H1082.6H997.608L995.097 692.929ZM751.942 725.259C751.942 726.061 749.133 754.341 748.867 756.224L748.646 757.786L785.165 757.663L821.685 757.54L823.231 742.436C824.081 734.129 824.788 726.739 824.801 726.014L824.825 724.695H788.384C760.757 724.695 751.942 724.832 751.942 725.259Z" fill="#85AB3A"/>
</svg>
