<svg width="1491" height="335" viewBox="0 0 1491 335" fill="none" xmlns="http://www.w3.org/2000/svg">
<path fill-rule="evenodd" clip-rule="evenodd" d="M126.062 7.67098C101.043 22.3275 41.2778 47.3547 14.9911 54.1831C3.68901 57.1189 2.15621 58.0092 0.848967 62.4076C-1.2187 69.3625 0.756678 117.161 3.91114 136.546C17.0502 217.264 58.4581 280.744 127.344 325.77L141.441 334.984L155.539 325.77C224.43 280.741 265.969 217.045 278.946 136.546C282.094 117.018 284.081 69.2993 282.032 62.4076C280.727 58.0126 279.194 57.1189 267.952 54.1985C241.728 47.3872 181.737 22.2608 155.29 7.01308C148.448 3.06914 141.956 -0.087027 140.864 0.00183125C139.772 0.0906895 133.111 3.54249 126.062 7.67098ZM114.4 27.3992C89.3329 40.1076 49.3365 56.7754 24.815 64.7299L13.2806 68.4722L13.3113 88.4124C13.3711 125.991 22.2552 168.947 36.5221 200.627L39.5997 207.462L40.7651 195.367C41.4059 188.714 42.5047 180.656 43.207 177.459C44.3656 172.178 44.2237 171.86 41.6571 173.99C40.1021 175.28 38.3386 175.845 37.7388 175.246C35.9736 173.479 43.4291 146.579 50.9394 127.614C60.2849 104.017 61.211 102.737 68.2496 103.698C74.8798 104.603 74.2783 103.904 60.5173 94.7162C51.0248 88.3765 50.2781 88.1612 46.018 90.5535C38.6154 94.7076 33.4941 105.302 34.5245 114.332C35.3636 121.693 35.2969 121.838 32.9456 117.749C29.7262 112.148 29.704 98.3576 32.9063 92.1666C34.3024 89.4684 37.8396 85.5535 40.7685 83.4671C45.5532 80.0614 47.4261 79.7846 59.1656 80.7483C66.3529 81.3396 74.0049 82.3153 76.1683 82.9202L80.102 84.0173L76.1683 88.3423C74.0049 90.7227 73.0036 92.3119 73.9434 91.8761C74.8832 91.4387 82.4584 87.734 90.7752 83.6431C103.243 77.5084 108.046 76.0696 118.116 75.451C128.935 74.7863 131.019 75.1708 136.315 78.8225L142.296 82.9459L147.069 79.4667C150.426 77.018 155.247 75.7945 163.333 75.3382C174.256 74.7196 175.563 75.0768 189.727 82.5477C197.925 86.871 205.216 90.3843 205.93 90.357C206.646 90.3279 205.884 89.5214 204.24 88.5627C199.999 86.0918 200.537 83.573 205.307 83.573C207.538 83.573 212.73 82.3768 216.841 80.9158C221.019 79.4325 226.638 78.6875 229.573 79.2292C242.581 81.6284 253.041 103.74 247.388 116.895C246.06 119.984 245.908 119.885 245.799 115.868C245.512 105.229 237.039 89.9845 230.209 87.816C227.762 87.0402 224.006 88.5132 217.819 92.6793C212.935 95.967 207.25 99.1471 205.182 99.7469C201.458 100.827 201.453 100.864 204.755 104.166C210.397 109.808 208.359 126.293 202.019 126.293C200.628 126.293 195.214 123.88 189.989 120.931C181.293 116.023 179.582 115.654 169.763 116.572C158.253 117.647 155.132 116.28 155.086 110.145C155.064 107.257 154.769 107.091 153.403 109.205C150.469 113.744 151.51 115.929 161.947 127.148C171.462 137.375 174.516 138.938 170.565 131.558C169.162 128.937 169.533 128.619 173.19 129.318C175.821 129.822 178.729 128.971 180.809 127.09C183.726 124.449 185.059 124.313 190.876 126.056C197.649 128.084 206.376 136.469 206.376 140.95C206.376 144.354 200.428 149.93 195.464 151.175C192.919 151.814 188.169 150.835 183.242 148.655C178.81 146.695 174.999 145.09 174.775 145.09C174.551 145.09 175.802 150.265 177.556 156.587C182.755 175.341 181.713 188.257 174.31 196.748C171.911 199.499 171.544 199.323 168.976 194.184C167.46 191.15 162.412 186.185 157.757 183.152C148.125 176.876 145.006 172.288 144.919 164.26C144.849 157.686 149.018 146.799 151.607 146.799C152.595 146.799 153.403 148.773 153.403 151.184C153.403 154.95 154.059 155.493 158.048 155.029C161.616 154.613 163.056 153.214 164.259 148.991C167.766 136.69 157.81 127.219 141.441 127.284C125.023 127.351 116.076 135.743 118.658 148.653C120.435 157.539 129.48 158.561 129.48 149.875C129.48 145.681 132.151 146.008 135.363 150.598C136.93 152.835 138.024 157.992 138.024 163.149C138.024 172.98 135.85 175.857 123.87 181.889C119.189 184.246 115.592 187.793 113.097 192.513C109.625 199.078 109.155 199.386 106.717 196.693C99.7738 189.022 99.1484 176.36 104.678 155.423C106.031 150.297 106.797 145.76 106.378 145.341C105.958 144.923 103.188 149.769 100.22 156.112C96.428 164.212 94.5756 171.093 93.9929 179.239C92.8207 195.632 97.4618 204.909 116.322 223.877C148.292 256.028 158.753 284.505 147.484 308.709C145.187 313.642 143.755 317.68 144.302 317.68C144.849 317.68 150.387 313.888 156.612 309.252C174.064 296.253 191.602 276.797 208.034 252.204C217.629 237.843 230.264 212.375 230.356 207.211C230.407 204.354 230.724 204.417 233.601 207.865C236.498 211.336 236.899 211.413 238.008 208.72C238.678 207.088 239.63 196.712 240.125 185.661C240.855 169.337 241.443 165.917 243.266 167.43C245.076 168.932 245.31 168.029 244.473 162.744C243.48 156.478 237.243 132.601 234.727 125.439C234.066 123.559 235.479 125.622 237.868 130.022C242.979 139.443 250.794 165.381 250.831 173.05C250.886 184.162 253.625 183.029 257.282 170.381C266.072 139.972 269.525 116.936 269.572 88.4124L269.602 68.4722L258.068 64.7299C234.298 57.0198 194.398 40.4716 168.782 27.7C154.215 20.4375 141.911 14.4105 141.441 14.308C140.972 14.2055 128.803 20.0957 114.4 27.3992ZM127.797 109.291C127.757 115.998 125.139 117.563 117.016 115.738C108.325 113.785 104.186 114.755 92.9574 121.38C84.2356 126.527 84.2236 126.548 90.1686 125.803C93.7383 125.355 97.6908 126.069 99.9977 127.582C102.118 128.971 105.794 129.737 108.166 129.284C111.879 128.575 112.323 128.945 111.365 131.961C110.432 134.906 111.375 134.576 117.274 129.904C129.856 119.94 133.362 113.503 129.48 107.496C128.173 105.473 127.817 105.849 127.797 109.291ZM137.798 131.244C139.083 132.059 140.649 133.554 141.274 134.567C141.992 135.728 143.188 135.169 144.505 133.06C146.423 129.989 146.134 129.713 141.028 129.737C137.222 129.755 136.201 130.232 137.798 131.244ZM129.668 187.932C105.55 192.727 115.256 213.443 141.621 213.443C157.316 213.443 169.921 203.05 163.545 195.365C157.959 188.636 142.824 185.316 129.668 187.932Z" fill="#121212"/>
<path fill-rule="evenodd" clip-rule="evenodd" d="M337.032 95.4498C336.642 98.3009 322.867 239.498 322.867 240.641C322.867 241.558 323.542 241.574 360.987 241.574C396.96 241.574 399.108 241.527 399.136 240.735C399.152 240.274 399.963 231.481 400.939 221.196L402.712 202.496L411.504 202.365L420.297 202.234L420.004 204.523C419.744 206.557 416.368 240.733 416.368 241.334C416.368 241.466 433.508 241.574 454.458 241.574H492.548L492.83 239.537C493.225 236.685 506.991 95.5827 506.991 94.3873V93.412H422.151H337.311L337.032 95.4498ZM521.154 95.4498C520.765 98.2788 506.991 239.469 506.991 240.632C506.991 241.561 507.525 241.574 543.433 241.574C563.475 241.574 579.874 241.52 579.874 241.455C579.874 241.389 580.414 236.048 581.073 229.587C581.731 223.126 582.271 217.678 582.271 217.48C582.271 217.282 597.497 217.12 616.105 217.12H649.938L663.455 205.786C670.888 199.552 677.249 194.196 677.589 193.883C678.018 193.487 679.661 178.45 682.983 144.504C685.61 117.657 687.759 95.1794 687.759 94.5522V93.412H604.597H521.435L521.154 95.4498ZM701.93 95.447C701.561 98.2016 687.759 239.73 687.759 240.761C687.759 241.519 690.342 241.574 725.817 241.574H763.874L764.159 239.297C764.316 238.044 765.221 228.82 766.171 218.799C767.121 208.777 768.046 200.195 768.226 199.727C768.444 199.16 771.201 205.974 776.47 220.105L784.385 241.335H800.871H817.357L828.677 219.427C834.903 207.378 840.061 197.798 840.139 198.138C840.216 198.478 839.407 207.943 838.341 219.171C837.274 230.398 836.401 240.032 836.401 240.58V241.574L874.401 241.574L912.4 241.573L919.497 168.572C923.401 128.421 926.696 95.083 926.82 94.488L927.044 93.4062L888.797 93.529L850.55 93.6517L829.451 133.292C817.846 155.094 808.243 173.039 808.11 173.17C807.978 173.301 801.272 155.463 793.208 133.53L778.546 93.6517L740.375 93.529L702.203 93.4062L701.93 95.447ZM940.928 94.0114C940.927 94.3413 937.691 127.613 933.736 167.948C929.781 208.283 926.545 241.35 926.545 241.43C926.545 241.509 943.689 241.574 964.643 241.574H1002.74L1002.99 240.016C1003.13 239.159 1003.9 231.229 1004.7 222.395C1005.51 213.56 1006.29 205.415 1006.45 204.294L1006.73 202.256H1015.31C1023.77 202.256 1023.88 202.27 1023.88 203.289C1023.88 204.49 1020.67 237.108 1020.29 239.779L1020.03 241.58L1058.28 241.457L1096.52 241.335L1098.52 220.956C1099.61 209.748 1100.64 199.446 1100.8 198.061L1101.09 195.543H1080.47H1059.84V194.457C1059.84 193.86 1061.03 181.677 1062.48 167.383C1063.93 153.09 1065.12 140.956 1065.12 140.419C1065.12 139.452 1065.31 139.443 1085.73 139.443H1106.34L1106.56 138.364C1106.69 137.771 1107.67 128.007 1108.74 116.667C1109.8 105.327 1110.78 95.4561 1110.9 94.7306L1111.13 93.412H1026.03C958.27 93.412 940.93 93.5343 940.928 94.0114ZM409.444 135.248C409.296 136.369 408.635 143.111 407.974 150.232C407.315 157.352 406.654 164.095 406.507 165.216L406.24 167.253H414.845H423.451L423.738 165.216C423.896 164.095 424.461 158.323 424.993 152.389C425.924 142.004 426.117 140.091 426.706 135.367L426.976 133.21H418.345H409.714L409.444 135.248ZM590.219 135.487C589.777 138.913 585.628 181.888 585.628 183.038C585.628 184.012 585.835 184.036 594.214 184.036H602.799L603.09 181.758C603.523 178.372 607.684 135.254 607.684 134.155C607.684 133.249 607.323 133.21 599.099 133.21H590.513L590.219 135.487ZM1013.33 133.804C1013.33 134.441 1010.57 163.723 1010.3 165.945L1010.14 167.275L1018.8 167.144L1027.47 167.014L1028.07 160.301C1028.4 156.609 1029.11 149.256 1029.63 143.962C1030.16 138.668 1030.59 134.083 1030.59 133.773C1030.59 133.363 1028.25 133.21 1021.96 133.21C1015.42 133.21 1013.33 133.354 1013.33 133.804Z" fill="#121212"/>
<path fill-rule="evenodd" clip-rule="evenodd" d="M1149.4 94.4851C1149.09 95.9691 1145.76 130.25 1145.77 131.882L1145.77 133.198L1183.37 133.321L1220.97 133.444L1178.3 187.147C1154.83 216.683 1135.53 241.011 1135.4 241.209C1135.27 241.407 1155.41 241.559 1180.15 241.547L1225.13 241.525L1245.27 213.18C1256.34 197.59 1273.71 173.164 1283.87 158.899L1302.33 132.964L1304.17 114.024C1305.18 103.607 1306.11 94.7066 1306.24 94.2454C1306.46 93.4489 1302.5 93.4062 1228.05 93.4062H1149.63L1149.4 94.4851ZM1317.96 119.179C1316.58 133.354 1315.33 145.652 1315.19 146.51L1314.93 148.068H1352.38C1387.29 148.068 1389.83 148.013 1389.83 147.254C1389.83 145.857 1390.82 135.417 1391.06 134.283C1391.29 133.213 1391.36 133.204 1399.91 133.204C1406.49 133.204 1408.54 133.346 1408.54 133.803C1408.54 134.133 1408.18 138.125 1407.72 142.674L1406.89 150.946L1358.93 176.181C1332.54 190.06 1310.71 201.658 1310.41 201.953C1310.08 202.271 1309.14 209.741 1308.12 220.231C1307.16 229.989 1306.26 238.782 1306.11 239.772L1305.84 241.572L1390.86 241.45L1475.89 241.329L1477.66 222.869C1478.63 212.715 1479.44 203.817 1479.46 203.093L1479.5 201.778L1450.31 201.655L1421.12 201.531L1451.63 183.66C1468.41 173.831 1482.4 165.622 1482.72 165.419C1483.12 165.167 1484.38 154.09 1486.66 130.786C1488.5 111.941 1490.11 95.8219 1490.24 94.9646L1490.47 93.4062H1405.47H1320.47L1317.96 119.179ZM1074.81 151.509C1074.81 152.311 1072 180.591 1071.73 182.474L1071.51 184.036L1108.03 183.913L1144.55 183.79L1146.1 168.686C1146.95 160.379 1147.65 152.989 1147.67 152.264L1147.69 150.945H1111.25C1083.62 150.945 1074.81 151.082 1074.81 151.509Z" fill="#85AB3A"/>
</svg>
