<svg width="3279" height="679" viewBox="0 0 3279 679" fill="none" xmlns="http://www.w3.org/2000/svg">
<path d="M111.461 531.141V653.434H83.3337V554.202H28.1277V653.434H0V531.141H111.461ZM194.795 531.141C205.627 531.141 215.032 532.946 223.01 536.557C230.988 540.168 237.132 545.292 241.441 551.931C245.75 558.57 247.905 566.431 247.905 575.516C247.905 584.484 245.75 592.316 241.441 599.013C237.132 605.711 230.988 610.835 223.01 614.387C215.032 617.939 205.627 619.715 194.795 619.715H170.162V653.433H141.86V531.141H194.795V531.141ZM193.223 596.655C201.725 596.655 208.189 594.821 212.615 591.152C217.041 587.484 219.254 582.272 219.254 575.516C219.254 568.644 217.041 563.374 212.615 559.705C208.189 556.037 201.725 554.202 193.223 554.202H170.162V596.655H193.223ZM326.696 655.53C314.002 655.53 302.558 652.793 292.368 647.319C282.176 641.845 274.198 634.304 268.433 624.695C262.668 615.086 259.785 604.284 259.785 592.287C259.785 580.291 262.668 569.489 268.433 559.88C274.198 550.272 282.176 542.73 292.368 537.256C302.559 531.782 314.002 529.045 326.696 529.045C339.392 529.045 350.806 531.782 360.939 537.256C371.071 542.73 379.05 550.271 384.873 559.88C390.697 569.489 393.608 580.291 393.608 592.287C393.608 604.284 390.697 615.086 384.873 624.695C379.05 634.303 371.071 641.845 360.939 647.319C350.806 652.793 339.392 655.53 326.696 655.53ZM326.696 631.421C333.918 631.421 340.44 629.761 346.264 626.442C352.087 623.123 356.659 618.493 359.978 612.553C363.297 606.613 364.957 599.858 364.957 592.287C364.957 584.717 363.297 577.962 359.978 572.022C356.658 566.082 352.087 561.452 346.264 558.133C340.44 554.813 333.917 553.154 326.696 553.154C319.476 553.154 312.953 554.814 307.13 558.133C301.307 561.452 296.735 566.082 293.416 572.022C290.096 577.962 288.437 584.717 288.437 592.287C288.437 599.858 290.097 606.613 293.416 612.553C296.735 618.493 301.307 623.123 307.13 626.442C312.953 629.762 319.476 631.421 326.696 631.421ZM415.447 531.141H443.574V610.806L501.925 531.141H528.48V653.434H500.527V573.944L442.176 653.434H415.446V531.141H415.447ZM628.411 589.667C635.516 592.113 641.077 595.927 645.095 601.11C649.113 606.293 651.122 612.32 651.122 619.192C651.122 626.646 648.677 633.11 643.785 638.584C638.893 644.058 632.284 648.251 623.956 651.163C615.628 654.075 606.515 655.53 596.615 655.53C588.229 655.53 579.872 654.482 571.544 652.386C563.217 650.289 555.326 647.086 547.872 642.777L556.607 622.511C561.965 625.773 567.876 628.247 574.339 629.936C580.804 631.626 587.122 632.47 593.295 632.47C601.681 632.47 608.64 630.956 614.172 627.927C619.705 624.899 622.471 620.648 622.471 615.174C622.471 610.631 620.578 607.196 616.793 604.866C613.008 602.537 607.854 601.372 601.332 601.372H571.457V580.058H599.235C604.942 580.058 609.397 578.893 612.6 576.564C615.803 574.235 617.404 571.032 617.404 566.955C617.404 562.181 615.104 558.453 610.503 555.775C605.903 553.096 599.992 551.756 592.771 551.756C587.413 551.756 581.881 552.484 576.174 553.94C570.467 555.396 565.051 557.58 559.926 560.491L551.366 538.479C564.294 531.84 578.271 528.521 593.295 528.521C602.845 528.521 611.639 529.918 619.675 532.713C627.712 535.509 634.117 539.585 638.893 544.943C643.668 550.3 646.055 556.531 646.055 563.636C646.055 569.46 644.483 574.643 641.338 579.185C638.194 583.727 633.885 587.221 628.41 589.667L628.411 589.667ZM758.216 589.667C765.67 591.88 771.378 595.491 775.337 600.498C779.297 605.507 781.277 611.68 781.277 619.017C781.277 629.849 777.172 638.293 768.961 644.349C760.749 650.406 749.015 653.434 733.757 653.434H673.485V531.141H730.438C744.648 531.141 755.712 533.878 763.632 539.352C771.552 544.826 775.512 552.63 775.512 562.763C775.512 568.819 773.998 574.148 770.969 578.748C767.941 583.348 763.69 586.988 758.216 589.667H758.216ZM701.613 581.806H727.992C734.166 581.806 738.824 580.554 741.969 578.05C745.114 575.545 746.686 571.848 746.686 566.956C746.686 562.181 745.085 558.512 741.882 555.949C738.679 553.387 734.049 552.106 727.992 552.106H701.613V581.806ZM732.71 632.47C745.987 632.47 752.626 627.229 752.626 616.746C752.626 606.613 745.987 601.547 732.71 601.547H701.613V632.47H732.71ZM861.991 655.53C849.296 655.53 837.853 652.793 827.662 647.319C817.471 641.845 809.492 634.304 803.727 624.695C797.962 615.086 795.079 604.284 795.079 592.287C795.079 580.291 797.962 569.489 803.727 559.88C809.492 550.272 817.471 542.73 827.662 537.256C837.853 531.782 849.296 529.045 861.991 529.045C874.686 529.045 886.1 531.782 896.233 537.256C906.365 542.73 914.344 550.271 920.167 559.88C925.991 569.489 928.903 580.291 928.903 592.287C928.903 604.284 925.991 615.086 920.167 624.695C914.344 634.303 906.365 641.845 896.233 647.319C886.1 652.793 874.686 655.53 861.991 655.53ZM861.991 631.421C869.212 631.421 875.734 629.761 881.558 626.442C887.381 623.123 891.952 618.493 895.272 612.553C898.591 606.613 900.251 599.858 900.251 592.287C900.251 584.717 898.591 577.962 895.272 572.022C891.952 566.082 887.381 561.452 881.558 558.133C875.734 554.813 869.212 553.154 861.991 553.154C854.77 553.154 848.248 554.814 842.424 558.133C836.601 561.452 832.029 566.082 828.71 572.022C825.391 577.962 823.731 584.717 823.731 592.287C823.731 599.858 825.391 606.613 828.71 612.553C832.03 618.493 836.601 623.123 842.424 626.442C848.248 629.762 854.77 631.421 861.991 631.421ZM1073.38 630.373V678.765H1047.18V653.434H960.873V678.765H934.668L934.842 630.373H939.733C947.071 630.14 952.254 624.782 955.282 614.3C958.31 603.818 960.174 588.852 960.873 569.402L962.27 531.142H1056.26V630.373H1073.38L1073.38 630.373ZM985.856 572.022C985.274 586.581 984.051 598.781 982.188 608.622C980.324 618.464 977.47 625.714 973.626 630.373H1028.31V554.202H986.38L985.856 572.022V572.022ZM1150.25 655.53C1137.79 655.53 1126.52 652.822 1116.45 647.406C1106.37 641.991 1098.45 634.478 1092.69 624.87C1086.92 615.261 1084.04 604.4 1084.04 592.287C1084.04 580.175 1086.92 569.314 1092.69 559.705C1098.45 550.096 1106.37 542.584 1116.45 537.169C1126.52 531.753 1137.85 529.045 1150.43 529.045C1161.03 529.045 1170.61 530.908 1179.17 534.636C1187.73 538.363 1194.92 543.72 1200.74 550.708L1182.57 567.48C1174.3 557.929 1164.05 553.154 1151.83 553.154C1144.26 553.154 1137.5 554.814 1131.56 558.133C1125.62 561.453 1120.99 566.082 1117.67 572.022C1114.35 577.962 1112.69 584.717 1112.69 592.288C1112.69 599.858 1114.35 606.613 1117.67 612.554C1120.99 618.494 1125.62 623.123 1131.56 626.443C1137.5 629.762 1144.26 631.421 1151.83 631.421C1164.05 631.421 1174.3 626.588 1182.57 616.921L1200.74 633.693C1194.92 640.797 1187.7 646.213 1179.08 649.94C1170.46 653.667 1160.85 655.531 1150.25 655.531V655.53ZM1311.51 554.202H1272.37V653.434H1244.42V554.202H1205.46V531.141H1311.51V554.202ZM1414.06 589.667C1421.51 591.88 1427.22 595.49 1431.18 600.498C1435.14 605.506 1437.12 611.679 1437.12 619.017C1437.12 629.848 1433.01 638.293 1424.8 644.349C1416.59 650.405 1404.86 653.433 1389.6 653.433H1329.32V531.141H1386.28C1400.49 531.141 1411.55 533.878 1419.47 539.352C1427.39 544.826 1431.35 552.63 1431.35 562.763C1431.35 568.819 1429.84 574.147 1426.81 578.748C1423.78 583.348 1419.53 586.988 1414.06 589.667H1414.06ZM1357.45 581.805H1383.83C1390.01 581.805 1394.66 580.553 1397.81 578.049C1400.95 575.545 1402.53 571.847 1402.53 566.955C1402.53 562.181 1400.92 558.512 1397.72 555.949C1394.52 553.387 1389.89 552.105 1383.83 552.105H1357.45V581.805ZM1388.55 632.469C1401.83 632.469 1408.47 627.228 1408.47 616.746C1408.47 606.613 1401.83 601.547 1388.55 601.547H1357.45V632.469H1388.55ZM1554.17 630.722V653.434H1459.48V531.141H1551.9V553.853H1487.61V580.408H1544.39V602.42H1487.61V630.722H1554.17H1554.17ZM1689.22 531.141V653.433H1660.91V603.293H1605.36V653.433H1577.06V531.141H1605.36V579.359H1660.91V531.141H1689.22ZM1831.95 531.141V653.433H1803.65V603.293H1748.09V653.433H1719.79V531.141H1748.09V579.359H1803.65V531.141H1831.95ZM1945.33 627.228H1888.55L1877.72 653.434H1848.72L1903.23 531.141H1931.18L1985.86 653.434H1956.16L1945.33 627.228H1945.33ZM1936.42 605.739L1917.03 558.919L1897.64 605.739H1936.42ZM2093.48 531.141V653.433H2065.53V620.938H2039.67L2018.01 653.433H1988.13L2013.64 616.571C2005.37 613.193 1999.02 608.098 1994.6 601.284C1990.17 594.47 1987.96 586.289 1987.96 576.738C1987.96 567.304 1990.11 559.181 1994.42 552.367C1998.73 545.553 2004.85 540.312 2012.77 536.644C2020.69 532.975 2030.01 531.141 2040.72 531.141H2093.48V531.141ZM2041.42 554.202C2033.38 554.202 2027.24 556.065 2022.99 559.792C2018.74 563.52 2016.61 569.052 2016.61 576.389C2016.61 583.494 2018.65 588.968 2022.73 592.811C2026.8 596.655 2032.8 598.577 2040.72 598.577H2065.53V554.202H2041.42ZM2220.84 604.167H2201.27V653.433H2173.15V531.141H2201.27V580.582H2221.54L2253.69 531.141H2283.56L2243.55 590.191L2284.78 653.434H2252.64L2220.84 604.167L2220.84 604.167ZM2355.89 655.529C2343.19 655.529 2331.75 652.792 2321.56 647.318C2311.37 641.844 2303.39 634.303 2297.62 624.694C2291.86 615.086 2288.98 604.283 2288.98 592.287C2288.98 580.29 2291.86 569.488 2297.62 559.879C2303.39 550.271 2311.37 542.729 2321.56 537.255C2331.75 531.781 2343.19 529.044 2355.89 529.044C2368.58 529.044 2380 531.781 2390.13 537.255C2400.26 542.729 2408.24 550.271 2414.06 559.879C2419.89 569.488 2422.8 580.29 2422.8 592.287C2422.8 604.283 2419.89 615.086 2414.06 624.694C2408.24 634.303 2400.26 641.844 2390.13 647.318C2380 652.792 2368.58 655.529 2355.89 655.529ZM2355.89 631.42C2363.11 631.42 2369.63 629.761 2375.45 626.442C2381.28 623.122 2385.85 618.492 2389.17 612.553C2392.49 606.613 2394.15 599.858 2394.15 592.287C2394.15 584.716 2392.49 577.961 2389.17 572.021C2385.85 566.081 2381.28 561.451 2375.45 558.132C2369.63 554.812 2363.11 553.153 2355.89 553.153C2348.67 553.153 2342.14 554.813 2336.32 558.132C2330.5 561.451 2325.93 566.081 2322.61 572.021C2319.29 577.961 2317.63 584.716 2317.63 592.287C2317.63 599.857 2319.29 606.612 2322.61 612.553C2325.93 618.492 2330.5 623.122 2336.32 626.442C2342.14 629.761 2348.67 631.42 2355.89 631.42ZM2555.92 653.433L2555.75 580.232L2519.76 640.505H2507.18L2471.19 581.63V653.433H2444.64V531.141H2468.05L2513.82 607.136L2558.89 531.141H2582.31L2582.48 653.433H2555.92H2555.92ZM2724.34 531.141V653.433H2696.21V554.201H2641V653.433H2612.88V531.141H2724.34ZM2837.55 627.228H2780.77L2769.94 653.433H2740.94L2795.44 531.141H2823.4L2878.08 653.433H2848.38L2837.55 627.228H2837.55ZM2828.64 605.739L2809.25 558.918L2789.85 605.739H2828.64ZM3006.49 531.141V653.433H2978.18V603.293H2922.63V653.433H2894.33V531.141H2922.63V579.359H2978.18V531.141H3006.49ZM3037.06 531.141H3065.19V610.805L3123.54 531.141H3150.09V653.433H3122.14V573.943L3063.79 653.433H3037.06V531.141H3037.06ZM3278.15 531.141V653.433H3250.2V620.938H3224.34L3202.68 653.433H3172.8L3198.31 616.57C3190.04 613.193 3183.69 608.097 3179.27 601.284C3174.84 594.47 3172.63 586.288 3172.63 576.738C3172.63 567.304 3174.78 559.18 3179.09 552.366C3183.4 545.553 3189.52 540.312 3197.44 536.643C3205.36 532.974 3214.68 531.14 3225.39 531.14H3278.15V531.141ZM3226.09 554.201C3218.05 554.201 3211.91 556.065 3207.66 559.792C3203.41 563.519 3201.28 569.051 3201.28 576.389C3201.28 583.494 3203.32 588.967 3207.4 592.811C3211.47 596.654 3217.47 598.576 3225.39 598.576H3250.2V554.201H3226.09Z" fill="black"/>
<path d="M40.7908 0.000488281H516.869L476.079 407.901H262.805L273.877 298.933H223.763L213.274 407.901H0.000488281L40.7908 0.000488281ZM283.2 203.951C284.366 191.908 285.531 180.059 286.697 168.405C287.474 158.304 288.445 147.815 289.61 136.938C290.776 126.061 291.747 116.738 292.524 108.968H242.993L233.67 203.95H283.2L283.2 203.951Z" fill="black"/>
<path d="M516.868 407.901L557.659 0.000488281H1024.41L997.025 274.459L917.776 339.723H727.811L720.818 407.901H516.868V407.901ZM750.537 108.968L736.552 249.402H786.666L800.65 108.968H750.537Z" fill="black"/>
<path d="M1024.41 407.901L1065.2 0.000488281H1278.48L1361.81 222.015L1482.43 0.000488281H1695.12L1654.33 407.901H1441.64L1453.87 280.869L1386.86 407.901H1296.54L1249.92 285.53L1237.69 407.901H1024.41Z" fill="black"/>
<path fill-rule="evenodd" clip-rule="evenodd" d="M1735.91 0H2211.99L2199.35 126.38H2083.7L2067.74 280.937H2183.89L2171.2 407.9H1957.92L1968.99 298.933H1918.88L1908.39 407.9H1695.12L1735.91 0ZM1978.32 203.95C1979.48 191.907 1980.65 180.059 1981.81 168.404C1982.59 158.305 1983.56 147.816 1984.73 136.938C1985.89 126.06 1986.86 116.737 1987.64 108.968H1938.11L1928.79 203.95H1978.32L1978.32 203.95Z" fill="black"/>
<path d="M2112.67 158.499H2316.62L2307.3 248.819H2103.35L2112.67 158.499Z" fill="#707E22"/>
<path d="M2761.28 0.000488281L2750.21 108.968L2532.86 407.901H2281.12L2523.53 108.968H2310.84L2321.92 0.000488281H2761.28Z" fill="#707E22"/>
<path d="M2802.07 0.000488281H3278.15L3258.34 196.958L3080.61 298.933H3247.85L3237.36 407.901H2761.28L2772.35 298.933L3044.48 158.499L3049.73 108.968H2999.61L2995.53 149.758H2786.92L2802.07 0.000488281Z" fill="#707E22"/>
</svg>
