<svg width="25" height="20" viewBox="0 0 25 20" fill="none" xmlns="http://www.w3.org/2000/svg">
<path fill-rule="evenodd" clip-rule="evenodd" d="M1.99257 3.0771L12.5 10.1272L23.0074 3.0771C22.8071 2.41624 22.1965 1.93548 21.4744 1.93548H3.52564C2.80348 1.93548 2.19288 2.41624 1.99257 3.0771ZM23.0769 5.35663L13.0334 12.0955C12.7104 12.3122 12.2896 12.3122 11.9666 12.0955L1.92308 5.35663V16.4516C1.92308 17.3424 2.64057 18.0645 3.52564 18.0645H21.4744C22.3594 18.0645 23.0769 17.3424 23.0769 16.4516V5.35663ZM0 3.54839C0 1.58867 1.57848 0 3.52564 0H21.4744C23.4215 0 25 1.58867 25 3.54839V16.4516C25 18.4113 23.4215 20 21.4744 20H3.52564C1.57848 20 0 18.4113 0 16.4516V3.54839Z" fill="#F1F1F1"/>
</svg>
