<svg width="25" height="18" viewBox="0 0 25 18" fill="none" xmlns="http://www.w3.org/2000/svg">
<path fill-rule="evenodd" clip-rule="evenodd" d="M24.4395 0.105789C24.9402 0.352773 25.1431 0.953431 24.8928 1.4474C24.1911 2.83196 23.1431 4.55574 21.9147 6.11401C21.0771 7.17659 20.1189 8.20977 19.0931 9C20.1189 9.79023 21.0771 10.8234 21.9147 11.886C23.1431 13.4443 24.1911 15.168 24.8928 16.5526C25.1431 17.0466 24.9402 17.6472 24.4395 17.8942C23.9389 18.1412 23.3301 17.941 23.0798 17.447C22.4301 16.165 21.4511 14.5555 20.3147 13.1138C19.229 11.7366 18.0676 10.6003 16.9784 9.99997H14.1891V16.9998C14.1891 17.3031 14.0496 17.59 13.8098 17.7798C13.57 17.9696 13.2559 18.0418 12.9558 17.976C9.58692 17.2373 6.69358 14.8663 4.49632 11.8312C2.29153 8.78564 0.716832 4.97939 0.0165235 1.17908C-0.0836057 0.635713 0.281663 0.115142 0.832373 0.0163488C1.38308 -0.0824446 1.91069 0.27795 2.01082 0.821314C2.66184 4.35416 4.12764 7.88105 6.14575 10.6687C7.86056 13.0374 9.9239 14.8071 12.1621 15.6552V2.00017H10.473C9.91324 2.00017 9.45949 1.55247 9.45949 1.00019C9.45949 0.447923 9.91324 0.000219055 10.473 0.000219055H13.1756C13.7354 0.000219055 14.1891 0.447923 14.1891 1.00019V8.00002H16.9784C18.0676 7.3997 19.229 6.2634 20.3147 4.88616C21.4511 3.44451 22.4301 1.83503 23.0798 0.552992C23.3301 0.0590255 23.9389 -0.141194 24.4395 0.105789Z" fill="#F1F1F1"/>
</svg>
