<svg width="31" height="30" viewBox="0 0 31 30" fill="none" xmlns="http://www.w3.org/2000/svg">
<path d="M19.9438 17.8188H18.9563L18.6063 17.4813C19.8313 16.0563 20.5688 14.2063 20.5688 12.1938C20.5688 7.70626 16.9313 4.06876 12.4438 4.06876C7.95626 4.06876 4.31876 7.70626 4.31876 12.1938C4.31876 16.6813 7.95626 20.3188 12.4438 20.3188C14.4563 20.3188 16.3063 19.5813 17.7313 18.3563L18.0688 18.7063V19.6938L24.3188 25.9313L26.1813 24.0688L19.9438 17.8188ZM12.4438 17.8188C9.33126 17.8188 6.81876 15.3063 6.81876 12.1938C6.81876 9.08126 9.33126 6.56876 12.4438 6.56876C15.5563 6.56876 18.0688 9.08126 18.0688 12.1938C18.0688 15.3063 15.5563 17.8188 12.4438 17.8188Z" fill="black"/>
</svg>
