<svg width="561" height="116" viewBox="0 0 561 116" fill="none" xmlns="http://www.w3.org/2000/svg">
<path d="M19.0407 90.7331V111.624H14.2357V94.6725H4.80498V111.624H0V90.7331H19.0407ZM33.2764 90.7331C35.1267 90.7331 36.7333 91.0415 38.0962 91.6583C39.4591 92.2751 40.5086 93.1505 41.2447 94.2845C41.9809 95.4186 42.349 96.7616 42.349 98.3135C42.349 99.8455 41.9809 101.183 41.2447 102.327C40.5086 103.472 39.4591 104.347 38.0962 104.954C36.7333 105.561 35.1267 105.864 33.2764 105.864H29.0683V111.624H24.2336V90.7331H33.2764V90.7331ZM33.0078 101.925C34.4602 101.925 35.5644 101.611 36.3205 100.985C37.0765 100.358 37.4545 99.4676 37.4545 98.3136C37.4545 97.1397 37.0765 96.2393 36.3205 95.6126C35.5644 94.9859 34.4602 94.6726 33.0078 94.6726H29.0683V101.925H33.0078ZM55.8087 111.982C53.6401 111.982 51.6853 111.515 49.9444 110.579C48.2035 109.644 46.8406 108.356 45.8558 106.715C44.8709 105.073 44.3784 103.228 44.3784 101.179C44.3784 99.1292 44.8709 97.2839 45.8558 95.6425C46.8406 94.0011 48.2035 92.7127 49.9444 91.7776C51.6853 90.8425 53.6401 90.375 55.8087 90.375C57.9774 90.375 59.9273 90.8425 61.6583 91.7776C63.3892 92.7127 64.7521 94.001 65.7469 95.6425C66.7417 97.2839 67.2391 99.1292 67.2391 101.179C67.2391 103.228 66.7417 105.073 65.7469 106.715C64.7521 108.356 63.3892 109.644 61.6583 110.579C59.9273 111.515 57.9774 111.982 55.8087 111.982ZM55.8087 107.864C57.0423 107.864 58.1565 107.58 59.1513 107.013C60.1461 106.446 60.9271 105.655 61.494 104.641C62.0611 103.626 62.3446 102.472 62.3446 101.179C62.3446 99.8853 62.0611 98.7314 61.494 97.7166C60.927 96.7019 60.1461 95.911 59.1513 95.3439C58.1565 94.7769 57.0422 94.4935 55.8087 94.4935C54.5752 94.4935 53.461 94.777 52.4662 95.3439C51.4714 95.911 50.6905 96.7019 50.1235 97.7166C49.5564 98.7313 49.273 99.8852 49.273 101.179C49.273 102.472 49.5565 103.626 50.1235 104.641C50.6906 105.655 51.4714 106.446 52.4662 107.013C53.461 107.58 54.5752 107.864 55.8087 107.864ZM70.9697 90.7331H75.7746V104.342L85.7426 90.7331H90.2789V111.624H85.5038V98.045L75.5358 111.624H70.9696V90.7331H70.9697ZM107.35 100.731C108.564 101.149 109.514 101.8 110.2 102.686C110.886 103.571 111.23 104.601 111.23 105.775C111.23 107.048 110.812 108.152 109.976 109.087C109.141 110.022 108.011 110.739 106.589 111.236C105.166 111.733 103.609 111.982 101.918 111.982C100.486 111.982 99.0581 111.803 97.6355 111.445C96.2128 111.087 94.8649 110.54 93.5916 109.804L95.0838 106.342C95.999 106.899 97.0087 107.321 98.1129 107.61C99.2172 107.899 100.297 108.043 101.351 108.043C102.784 108.043 103.972 107.784 104.917 107.267C105.863 106.749 106.335 106.023 106.335 105.088C106.335 104.312 106.012 103.725 105.365 103.327C104.719 102.929 103.838 102.73 102.724 102.73H97.6206V99.0895H102.366C103.341 99.0895 104.102 98.8904 104.649 98.4925C105.196 98.0947 105.47 97.5475 105.47 96.8512C105.47 96.0355 105.077 95.3988 104.291 94.9411C103.505 94.4835 102.495 94.2547 101.262 94.2547C100.346 94.2547 99.4013 94.3791 98.4263 94.6278C97.4514 94.8765 96.5262 95.2496 95.6508 95.7469L94.1884 91.9866C96.3969 90.8525 98.7845 90.2854 101.351 90.2854C102.983 90.2854 104.485 90.5241 105.858 91.0017C107.23 91.4792 108.325 92.1755 109.14 93.0907C109.956 94.006 110.364 95.0704 110.364 96.2841C110.364 97.2789 110.095 98.1643 109.558 98.9402C109.021 99.7162 108.285 100.313 107.35 100.731L107.35 100.731ZM129.524 100.731C130.797 101.109 131.772 101.726 132.449 102.581C133.125 103.437 133.464 104.491 133.464 105.745C133.464 107.595 132.762 109.038 131.36 110.072C129.957 111.107 127.952 111.624 125.346 111.624H115.05V90.7331H124.779C127.206 90.7331 129.096 91.2006 130.449 92.1358C131.802 93.0709 132.479 94.404 132.479 96.1349C132.479 97.1695 132.22 98.0798 131.703 98.8656C131.185 99.6515 130.459 100.273 129.524 100.731H129.524ZM119.855 99.3879H124.361C125.416 99.3879 126.211 99.1741 126.749 98.7463C127.286 98.3186 127.554 97.6869 127.554 96.8512C127.554 96.0355 127.281 95.4088 126.734 94.971C126.187 94.5333 125.396 94.3144 124.361 94.3144H119.855V99.3879ZM125.167 108.043C127.435 108.043 128.569 107.147 128.569 105.357C128.569 103.626 127.435 102.76 125.167 102.76H119.855V108.043H125.167ZM147.252 111.982C145.083 111.982 143.128 111.515 141.387 110.579C139.646 109.644 138.283 108.356 137.299 106.715C136.314 105.073 135.821 103.228 135.821 101.179C135.821 99.1292 136.314 97.2839 137.299 95.6425C138.283 94.0011 139.646 92.7127 141.387 91.7776C143.128 90.8425 145.083 90.375 147.252 90.375C149.42 90.375 151.37 90.8425 153.101 91.7776C154.832 92.7127 156.195 94.001 157.19 95.6425C158.185 97.2839 158.682 99.1292 158.682 101.179C158.682 103.228 158.185 105.073 157.19 106.715C156.195 108.356 154.832 109.644 153.101 110.579C151.37 111.515 149.42 111.982 147.252 111.982ZM147.252 107.864C148.485 107.864 149.599 107.58 150.594 107.013C151.589 106.446 152.37 105.655 152.937 104.641C153.504 103.626 153.788 102.472 153.788 101.179C153.788 99.8853 153.504 98.7314 152.937 97.7166C152.37 96.7019 151.589 95.911 150.594 95.3439C149.599 94.7769 148.485 94.4935 147.252 94.4935C146.018 94.4935 144.904 94.777 143.909 95.3439C142.914 95.911 142.133 96.7019 141.566 97.7166C140.999 98.7313 140.716 99.8852 140.716 101.179C140.716 102.472 140.999 103.626 141.566 104.641C142.133 105.655 142.914 106.446 143.909 107.013C144.904 107.58 146.018 107.864 147.252 107.864ZM183.363 107.685V115.951H178.887V111.624H164.143V115.951H159.667L159.697 107.685H160.532C161.786 107.645 162.671 106.73 163.188 104.939C163.706 103.148 164.024 100.592 164.143 97.269L164.382 90.7332H180.438V107.685H183.363L183.363 107.685ZM168.411 97.7167C168.312 100.204 168.103 102.288 167.785 103.969C167.466 105.65 166.979 106.889 166.322 107.685H175.663V94.6725H168.501L168.411 97.7166V97.7167ZM196.495 111.982C194.366 111.982 192.441 111.52 190.72 110.594C188.999 109.669 187.646 108.386 186.661 106.744C185.676 105.103 185.184 103.248 185.184 101.179C185.184 99.1093 185.676 97.254 186.661 95.6126C187.646 93.9712 188.999 92.6879 190.72 91.7627C192.441 90.8376 194.376 90.375 196.525 90.375C198.335 90.375 199.972 90.6933 201.434 91.33C202.896 91.9667 204.125 92.8819 205.12 94.0756L202.016 96.9407C200.603 95.3092 198.852 94.4935 196.763 94.4935C195.47 94.4935 194.316 94.7771 193.301 95.344C192.287 95.9111 191.496 96.702 190.929 97.7167C190.362 98.7313 190.078 99.8853 190.078 101.179C190.078 102.472 190.362 103.626 190.929 104.641C191.496 105.655 192.287 106.446 193.301 107.013C194.316 107.58 195.47 107.864 196.763 107.864C198.852 107.864 200.603 107.038 202.016 105.387L205.12 108.252C204.125 109.465 202.891 110.391 201.419 111.027C199.947 111.664 198.305 111.982 196.495 111.982V111.982ZM224.041 94.6725H217.356V111.624H212.581V94.6725H205.926V90.7331H224.041V94.6725ZM241.56 100.731C242.833 101.109 243.808 101.726 244.484 102.581C245.161 103.437 245.499 104.491 245.499 105.745C245.499 107.595 244.798 109.037 243.395 110.072C241.992 111.107 239.988 111.624 237.381 111.624H227.085V90.7331H236.814C239.242 90.7331 241.132 91.2005 242.485 92.1357C243.838 93.0708 244.514 94.4039 244.514 96.1349C244.514 97.1695 244.255 98.0797 243.738 98.8656C243.221 99.6514 242.495 100.273 241.56 100.731H241.56ZM231.89 99.3879H236.397C237.451 99.3879 238.247 99.174 238.784 98.7463C239.321 98.3185 239.59 97.6868 239.59 96.8512C239.59 96.0355 239.316 95.4087 238.769 94.9709C238.222 94.5333 237.431 94.3144 236.397 94.3144H231.89V99.3879ZM237.202 108.043C239.471 108.043 240.605 107.147 240.605 105.357C240.605 103.626 239.471 102.76 237.202 102.76H231.89V108.043H237.202ZM265.495 107.744V111.624H249.319V90.7331H265.107V94.6128H254.124V99.1491H263.823V102.909H254.124V107.744H265.495H265.495ZM288.564 90.7331V111.624H283.73V103.059H274.239V111.624H269.404V90.7331H274.239V98.97H283.73V90.7331H288.564ZM312.947 90.7331V111.624H308.112V103.059H298.622V111.624H293.787V90.7331H298.622V98.97H308.112V90.7331H312.947ZM332.316 107.147H322.617L320.766 111.624H315.812L325.124 90.7331H329.899L339.24 111.624H334.166L332.316 107.147H332.316ZM330.794 103.477L327.481 95.4782L324.169 103.477H330.794ZM357.624 90.7331V111.624H352.849V106.073H348.432L344.731 111.624H339.628L343.985 105.327C342.573 104.75 341.488 103.879 340.732 102.715C339.976 101.551 339.598 100.154 339.598 98.5223C339.598 96.9108 339.966 95.523 340.702 94.359C341.438 93.1951 342.483 92.2997 343.836 91.673C345.189 91.0463 346.781 90.733 348.611 90.733H357.624V90.7331ZM348.73 94.6725C347.358 94.6725 346.308 94.9908 345.582 95.6275C344.856 96.2642 344.493 97.2092 344.493 98.4627C344.493 99.6764 344.841 100.611 345.537 101.268C346.233 101.925 347.258 102.253 348.611 102.253H352.849V94.6725H348.73ZM379.38 103.208H376.038V111.624H371.233V90.7331H376.038V99.1789H379.5L384.991 90.7331H390.095L383.26 100.82L390.304 111.624H384.812L379.381 103.208L379.38 103.208ZM402.45 111.982C400.281 111.982 398.327 111.514 396.586 110.579C394.845 109.644 393.482 108.356 392.497 106.714C391.512 105.073 391.02 103.228 391.02 101.178C391.02 99.1291 391.512 97.2838 392.497 95.6424C393.482 94.001 394.845 92.7126 396.586 91.7775C398.327 90.8424 400.281 90.3748 402.45 90.3748C404.619 90.3748 406.569 90.8424 408.3 91.7775C410.03 92.7126 411.393 94.0009 412.388 95.6424C413.383 97.2838 413.881 99.1291 413.881 101.178C413.881 103.228 413.383 105.073 412.388 106.714C411.393 108.356 410.031 109.644 408.3 110.579C406.569 111.514 404.619 111.982 402.45 111.982ZM402.45 107.863C403.684 107.863 404.798 107.58 405.793 107.013C406.787 106.446 407.568 105.655 408.135 104.64C408.702 103.626 408.986 102.472 408.986 101.178C408.986 99.8852 408.702 98.7312 408.135 97.7165C407.568 96.7018 406.787 95.9109 405.793 95.3438C404.798 94.7768 403.684 94.4933 402.45 94.4933C401.217 94.4933 400.102 94.7769 399.108 95.3438C398.113 95.9109 397.332 96.7018 396.765 97.7165C396.198 98.7312 395.914 99.8851 395.914 101.178C395.914 102.472 396.198 103.626 396.765 104.64C397.332 105.655 398.113 106.446 399.108 107.013C400.102 107.58 401.217 107.863 402.45 107.863ZM436.622 111.624L436.592 99.1191L430.444 109.415H428.295L422.147 99.3579V111.624H417.611V90.733H421.61L429.43 103.715L437.129 90.733H441.129L441.158 111.624H436.622H436.622ZM465.392 90.733V111.624H460.587V94.6724H451.156V111.624H446.351V90.733H465.392ZM484.731 107.147H475.031L473.181 111.624H468.227L477.538 90.7331H482.314L491.655 111.624H486.581L484.731 107.147H484.731ZM483.209 103.476L479.896 95.4782L476.583 103.476H483.209ZM513.59 90.733V111.624H508.756V103.059H499.265V111.624H494.43V90.733H499.265V98.97H508.756V90.733H513.59ZM518.813 90.733H523.618V104.342L533.586 90.733H538.122V111.624H533.347V98.0448L523.379 111.624H518.813V90.733H518.813ZM559.998 90.733V111.624H555.223V106.073H550.806L547.105 111.624H542.002L546.359 105.327C544.947 104.75 543.862 103.879 543.106 102.715C542.35 101.551 541.972 100.154 541.972 98.5222C541.972 96.9107 542.34 95.5229 543.076 94.3589C543.813 93.195 544.857 92.2997 546.21 91.673C547.563 91.0463 549.155 90.7329 550.985 90.7329H559.998V90.733ZM551.105 94.6724C549.732 94.6724 548.682 94.9907 547.956 95.6274C547.23 96.2642 546.867 97.2092 546.867 98.4626C546.867 99.6763 547.215 100.611 547.911 101.268C548.608 101.925 549.632 102.253 550.985 102.253H555.223V94.6724H551.105Z" fill="black"/>
<path d="M6.9681 0H88.2952L81.3272 69.6805H44.8942L46.7856 51.0659H38.2248L36.4329 69.6805H0L6.9681 0ZM48.3783 34.8403C48.5774 32.783 48.7764 30.7589 48.9755 28.7681C49.1083 27.0426 49.2742 25.2509 49.4733 23.3927C49.6724 21.5346 49.8383 19.9419 49.9711 18.6146H41.5098L39.9171 34.8402H48.3783L48.3783 34.8403Z" fill="black"/>
<path d="M88.2986 69.6805L95.2667 0H175.001L170.323 46.8851L156.785 58.034H124.333L123.139 69.6806H88.2986V69.6805ZM128.216 18.6146L125.827 42.6046H134.387L136.776 18.6146H128.216Z" fill="black"/>
<path d="M175 69.6805L181.969 0H218.402L232.636 37.9262L253.242 0H289.575L282.607 69.6805H246.274L248.364 47.98L236.917 69.6805H221.487L213.524 48.7763L211.433 69.6805H175Z" fill="black"/>
<path fill-rule="evenodd" clip-rule="evenodd" d="M296.539 0H377.866L375.707 21.5892H355.952L353.226 47.9918H373.067L370.898 69.6806H334.465L336.357 51.066H327.796L326.004 69.6806H289.571L296.539 0ZM337.949 34.8403C338.149 32.783 338.347 30.759 338.547 28.7681C338.679 27.0427 338.845 25.251 339.044 23.3928C339.244 21.5346 339.409 19.9419 339.542 18.6147H331.081L329.488 34.8402H337.949L337.949 34.8403Z" fill="black"/>
<path d="M360.901 27.0754H395.742L394.149 42.5047H359.309L360.901 27.0754Z" fill="#707E22"/>
<path d="M471.706 0L469.815 18.6147L432.685 69.6805H389.682L431.092 18.6147H394.759L396.65 0H471.706Z" fill="#707E22"/>
<path d="M478.674 0H560.002L556.617 33.6457L526.256 51.0659H554.825L553.033 69.6805H471.706L473.598 51.0659L520.085 27.0758L520.98 18.6147H512.42L511.723 25.5827H476.086L478.674 0Z" fill="#707E22"/>
</svg>
